<?xml version="1.0" encoding="UTF-8" standalone="no"?>
<!-- Created with Inkscape (http://www.inkscape.org/) -->

<svg
   width="30.92124mm"
   height="43.106865mm"
   viewBox="0 0 30.92124 43.106865"
   version="1.1"
   id="svg1"
   inkscape:export-filename="J.svg"
   inkscape:export-xdpi="96"
   inkscape:export-ydpi="96"
   xmlns:inkscape="http://www.inkscape.org/namespaces/inkscape"
   xmlns:sodipodi="http://sodipodi.sourceforge.net/DTD/sodipodi-0.dtd"
   xmlns="http://www.w3.org/2000/svg"
   xmlns:svg="http://www.w3.org/2000/svg">
  <sodipodi:namedview
     id="namedview1"
     pagecolor="#ffffff"
     bordercolor="#000000"
     borderopacity="0.25"
     inkscape:showpageshadow="2"
     inkscape:pageopacity="0.0"
     inkscape:pagecheckerboard="0"
     inkscape:deskcolor="#d1d1d1"
     inkscape:document-units="mm">
    <inkscape:page
       x="0"
       y="0"
       width="30.92124"
       height="43.106865"
       id="page2"
       margin="0"
       bleed="0" />
  </sodipodi:namedview>
  <defs
     id="defs1" />
  <g
     inkscape:label="Camada 1"
     inkscape:groupmode="layer"
     id="layer1"
     transform="translate(-125.94165,-212.46042)">
    <g
       id="g145"
       transform="translate(100.57924,-7.6995733)">
      <path
         style="fill:#000000;stroke-width:0.264583"
         id="path120"
         d="m 26.418544,220.49492 c 0.0097,0.0465 0.01743,0.0934 0.02897,0.13953 0.05858,0.23384 0.03067,0.0574 0.07569,0.30147 0.02847,0.15436 0.04206,0.30998 0.0547,0.46621 0.02902,0.32276 0.03599,0.64612 0.03259,0.97004 0.01627,0.36874 0.01386,0.73774 0.01471,1.10688 -0.0085,0.3854 0.0074,0.77086 0.0047,1.15626 0.03701,0.53465 0.03245,1.07312 -0.01455,1.60711 -0.04401,0.4658 -0.10799,0.92905 -0.129712,1.39666 0.05803,0.59474 0.02056,1.19049 -0.02718,1.78412 -0.01864,0.18062 -0.01958,0.36235 -0.0328,0.5433 -0.0062,0.0845 -0.01851,0.16846 -0.02397,0.25299 -0.0176,0.27249 -0.01957,0.54702 -0.03078,0.81989 -0.01384,0.5485 -0.01587,1.09703 -0.01707,1.64567 0.0083,0.55493 0.0076,1.11084 -0.01497,1.66544 -0.04464,0.60008 -0.03692,1.20145 -0.04523,1.80253 -0.01236,0.6613 -0.02617,1.32255 -0.0459,1.98367 -0.0071,0.59699 -0.0073,1.19404 -0.03029,1.79069 -0.0027,0.084 -0.008,0.16793 -0.008,0.25197 2.6e-5,0.0599 0.01606,0.4897 0.01776,0.54914 0.0073,0.25289 0.01446,0.50579 0.02112,0.75869 -0.0027,0.3369 0.05437,0.66882 0.08137,1.00344 0.0056,0.0699 0.02548,0.44177 0.02932,0.51213 0.03529,0.56005 0.05331,1.12158 0.06865,1.68263 0.0014,0.43758 -0.01555,0.87414 0.0083,1.31141 0.003,0.0558 0.0031,0.11188 0.0089,0.16749 0.01359,0.13169 0.04097,0.26164 0.05698,0.39306 0.02934,0.24099 0.0422,0.48278 0.05457,0.72508 0.05581,0.49764 0.105275,0.99625 0.123071,1.49691 0.0021,0.0561 0.01416,0.69074 0.01532,0.75124 0.0195,0.7906 0.06452,1.58014 0.09176,2.37048 0.02654,0.90866 -0.01283,1.81746 -0.02424,2.72608 -0.006,0.51287 -0.01251,1.02724 -0.06963,1.53753 -0.0013,0.0127 -0.07232,0.54601 -0.07585,0.57255 -0.03772,0.23331 -0.05392,0.46922 -0.08351,0.70353 -0.0076,0.0604 -0.01648,0.12069 -0.02593,0.18086 -0.0079,0.05 -0.02368,0.0991 -0.02598,0.14976 -0.0027,0.0586 0.0074,0.11701 0.01109,0.17551 -2.65e-4,0.30358 -0.02344,0.60602 -0.02714,0.90977 -0.0062,0.20979 0.02183,0.41833 0.01318,0.62822 -0.0026,0.0626 -0.0123,0.12472 -0.01847,0.18707 0,0 5.110953,2.65191 5.110953,2.65191 v 0 c 0.01416,-0.2663 0.02876,-0.53171 0.06692,-0.79591 0.006,-0.0617 0.02437,-0.23807 0.02598,-0.3003 0.0056,-0.21443 -0.03075,-0.4293 -0.0084,-0.64377 0.02596,-0.30167 0.01736,-0.0368 -0.01098,-0.31599 -0.03098,-0.30555 0.0037,-0.61422 -0.0011,-0.9202 0.0085,-0.32859 0.0204,-0.65801 0.02035,-0.9867 -5.5e-5,-0.30646 -0.01291,-0.4996 -0.01725,-0.80814 -0.0021,-0.14454 -7.94e-4,-0.2891 -0.0013,-0.43365 7.93e-4,-0.90941 -0.01569,-1.81952 0.02746,-2.72827 0.02803,-0.78417 0.02756,-1.56888 -0.01937,-2.35242 -0.02886,-0.7257 -0.08957,-1.45528 -0.01156,-2.17997 0.0011,-0.24099 0.0021,-0.48197 0.0041,-0.72294 7.94e-4,-0.0898 0.0054,-0.29425 -0.0027,-0.38878 -0.0047,-0.0545 -0.01646,-0.10804 -0.02469,-0.16207 -0.04752,-0.44698 -0.14845,-0.88817 -0.134895,-1.34056 -0.01516,-0.56064 -0.04246,-1.12114 -0.03886,-1.68204 -0.02903,-0.63921 0.007,0.11415 -0.02958,-0.52761 -0.0098,-0.17091 -0.0108,-0.34232 -0.02405,-0.51299 -0.0059,-0.0757 -0.01942,-0.15077 -0.02543,-0.2265 -0.0064,-0.0803 -0.0078,-0.16082 -0.01172,-0.24122 -0.02058,-0.25315 -0.04734,-0.5074 -0.05956,-0.76109 -0.0064,-0.13238 -0.0053,-0.39263 -0.0081,-0.52671 -0.0019,-0.0867 -0.0054,-0.17331 -0.0081,-0.25997 -0.02223,-0.60324 -0.02315,-1.20689 -0.02058,-1.81048 -0.0065,-0.65889 0.0011,-1.31779 0.03608,-1.97594 0.0273,-0.58978 0.04889,-1.17979 0.08209,-1.76928 0.01217,-0.18958 0.0324,-0.37877 0.03795,-0.56866 0.0109,-0.37239 -0.0285,-0.74609 -0.0021,-1.11858 5.29e-4,-0.54294 2.65e-4,-1.08601 0.01402,-1.62879 0.01066,-0.53709 0.05163,-1.07262 0.06943,-1.6094 0.0095,-0.2987 0.02386,-0.5972 0.03263,-0.89592 0.0067,-0.22843 0.0039,-0.37775 0.02516,-0.60429 0.0081,-0.0861 0.02262,-0.17147 0.03395,-0.2572 0.02098,-0.47087 0.04224,-0.94161 0.06924,-1.41219 0.01992,-0.3761 0.0079,-0.18591 0.03641,-0.57055 0.01879,-0.34427 0.02379,-0.69047 0.07399,-1.03224 -0.0024,-0.38352 0.01339,-0.7671 0.0055,-1.15064 0.0013,-0.36507 8.2e-5,-0.73 0.01529,-1.09467 -0.006,-0.33475 -1.16e-4,-0.66975 -0.01148,-1.00413 -0.01884,-0.28768 -0.0445,-0.57515 -0.05708,-0.86293 z" />
      <path
         style="fill:#000000;stroke-width:0.264583"
         id="path121"
         d="m 48.504948,220.15999 c -0.0564,0.29889 -0.258638,0.52836 -0.433525,0.76557 -0.09148,0.0992 -0.163261,0.21449 -0.246806,0.31972 -0.04573,0.0576 -0.101441,0.10669 -0.148005,0.16361 -0.03272,0.04 -0.0624,0.0824 -0.0936,0.12361 -0.03418,0.0461 -0.07077,0.0904 -0.102531,0.13818 -0.03623,0.0545 -0.0651,0.11362 -0.101232,0.16816 -0.07975,0.1204 -0.124085,0.16011 -0.210434,0.27576 -0.151313,0.21342 -0.07463,0.10927 -0.229791,0.31262 -0.112053,0.16398 -0.244496,0.31188 -0.369297,0.46569 -0.134594,0.16589 -0.25981,0.33945 -0.392232,0.50711 -0.256061,0.35513 -0.539498,0.68857 -0.80341,1.03768 -0.200956,0.28167 -0.392824,0.57098 -0.600932,0.84751 -0.07764,0.10316 -0.265901,0.33082 -0.34844,0.43154 -0.158446,0.18068 -0.327769,0.35189 -0.487352,0.53147 -0.147394,0.16587 -0.28792,0.33677 -0.437999,0.50041 -0.22183,0.20972 -0.412827,0.44719 -0.615376,0.67451 -0.06419,0.072 -0.342366,0.36505 -0.400159,0.42617 -0.449085,0.44886 -0.929494,0.86452 -1.388414,1.30291 -0.07861,0.0792 -0.388853,0.39002 -0.461478,0.47084 -0.08583,0.0955 -0.16233,0.19911 -0.248076,0.29469 -0.09103,0.10147 -0.187828,0.19761 -0.282009,0.29617 -0.503147,0.52652 -0.0859,0.0861 -0.594331,0.62483 -0.101952,0.1053 -0.203877,0.21064 -0.305855,0.31592 -0.09937,0.1026 -0.197377,0.20654 -0.298196,0.30771 -0.02045,0.0205 -0.535988,0.52193 -0.565666,0.55037 -0.08583,0.0823 -0.175141,0.1609 -0.259308,0.24486 -0.08475,0.0845 -0.164827,0.17362 -0.247242,0.26043 -0.265036,0.26999 -0.515668,0.55393 -0.777579,0.8268 -0.09723,0.1013 -0.199877,0.19731 -0.296876,0.29883 -0.21813,0.22829 -0.428109,0.46424 -0.642252,0.69628 -0.346416,0.34229 -0.678662,0.69845 -1.018614,1.04697 -0.298622,0.30614 -0.602599,0.60728 -0.901481,0.91326 -0.278479,0.28769 -0.539297,0.59178 -0.810741,0.88588 -0.08309,0.09 -0.169759,0.17669 -0.253521,0.26609 -0.25618,0.27344 -0.231513,0.25046 -0.474001,0.53065 -0.43705,0.51819 -0.86817,1.04169 -1.280501,1.57981 -0.193371,0.26862 -0.402072,0.5289 -0.582732,0.80656 -0.07058,0.10848 -0.131675,0.22287 -0.200104,0.33272 -0.184428,0.29605 -0.261896,0.40402 -0.457608,0.69219 -0.291944,0.48617 -0.168222,0.29872 -0.489765,0.76075 -0.182052,0.26159 -0.284628,0.41229 -0.479642,0.65785 -0.12242,0.15415 -0.252235,0.30228 -0.377386,0.45422 -0.301796,0.51499 -0.59944,1.03247 -0.911677,1.54128 -0.118417,0.19221 -0.24153,0.38255 -0.372023,0.56688 -0.07878,0.11129 -0.163586,0.21634 -0.238961,0.33024 -0.163258,0.21415 -0.246361,0.47172 -0.360521,0.71253 -0.09588,0.18498 -0.174535,0.38029 -0.28552,0.55731 -0.124653,0.19882 0.01561,-0.0715 -0.116631,0.201 -0.100118,0.18936 -0.173487,0.3896 -0.263615,0.58347 -0.06415,0.15958 -0.114858,0.32484 -0.186221,0.48155 -0.07334,0.16105 -0.164767,0.31591 -0.249797,0.47098 -0.06634,0.15109 -0.121831,0.30727 -0.187571,0.45852 -0.06247,0.14374 -0.13604,0.28351 -0.200566,0.4265 -0.01831,0.0414 -0.03661,0.0828 -0.05492,0.12422 0,0 5.126576,2.82311 5.126576,2.82311 v 0 c 0.008,-0.0376 0.01598,-0.0752 0.02397,-0.11282 0.0912,-0.30161 0.23626,-0.58147 0.365546,-0.86795 0.103304,-0.32633 0.261443,-0.62477 0.458711,-0.9045 0.07088,-0.1342 0.14755,-0.26868 0.201752,-0.41085 0.01061,-0.0279 0.01701,-0.0572 0.02727,-0.0852 0.0122,-0.0333 0.02671,-0.0658 0.04007,-0.0986 0.114343,-0.25431 0.214006,-0.51465 0.343929,-0.76199 0.05155,-0.09 0.09832,-0.18277 0.152236,-0.27138 0.07841,-0.12888 0.175059,-0.24618 0.225089,-0.39117 0.07096,-0.12877 0.138359,-0.26204 0.196094,-0.39733 0.08706,-0.20402 0.156988,-0.41604 0.26494,-0.6111 0.04131,-0.0833 0.07997,-0.168 0.123931,-0.24995 0.232227,-0.43293 0.524312,-0.83073 0.785985,-1.24554 0.142811,-0.2859 0.282662,-0.57572 0.443415,-0.8521 0.222416,-0.3824 0.47109,-0.75125 0.746797,-1.09717 0.134771,-0.19446 0.328152,-0.48025 0.475681,-0.66649 0.08142,-0.10279 0.173736,-0.19661 0.255534,-0.2991 0.204703,-0.2565 0.379966,-0.53634 0.586656,-0.79147 0.397475,-0.53689 0.814747,-1.05777 1.248256,-1.56613 0.46704,-0.57981 0.949958,-1.1481 1.455624,-1.69455 0.09198,-0.10154 0.185841,-0.20141 0.275937,-0.30462 0.526108,-0.60272 -0.0029,-0.025 0.558479,-0.65145 0.320596,-0.35776 0.654387,-0.70371 0.995307,-1.04207 0.620596,-0.58187 1.263346,-1.14101 1.858651,-1.74908 0.53799,-0.56514 1.039082,-1.16418 1.584812,-1.72225 0.206869,-0.19963 0.409252,-0.4039 0.61695,-0.60267 0.517175,-0.49494 0.09507,-0.081 0.612079,-0.54242 0.1623,-0.14484 0.310525,-0.30496 0.474009,-0.44857 0.465068,-0.43742 0.928838,-0.87619 1.39877,-1.3084 0.383696,-0.35038 0.785455,-0.68466 1.127564,-1.07747 0.306544,-0.35531 0.60279,-0.72012 0.885439,-1.09473 0.07501,-0.0987 0.265213,-0.35019 0.341016,-0.4452 0.170074,-0.21316 0.349927,-0.41821 0.52347,-0.62844 0.04885,-0.0592 0.0955,-0.12014 0.143253,-0.18022 0.267198,-0.34403 0.546341,-0.67854 0.809641,-1.02567 0.254125,-0.32492 0.523338,-0.63716 0.775505,-0.9636 0.226226,-0.27869 0.440012,-0.56717 0.674179,-0.83915 0.07736,-0.075 0.138292,-0.13026 0.207849,-0.21297 0.119853,-0.14252 0.21136,-0.30529 0.310028,-0.46232 0.167785,-0.27318 0.362085,-0.53367 0.573826,-0.77414 z" />
      <path
         style="fill:#000000;stroke-width:0.264583"
         id="path123"
         d="m 34.867982,237.04752 c 0.04021,0.0379 0.08585,0.0708 0.120615,0.1138 0.04429,0.0547 0.07511,0.11916 0.114893,0.17726 0.04201,0.0614 0.08614,0.12126 0.1304,0.18102 0.176519,0.23833 0.36031,0.47123 0.537747,0.70891 0.314566,0.43708 0.597614,0.89593 0.932953,1.31771 0.393578,0.43363 0.704614,0.93243 1.048967,1.40437 0.508524,0.66436 0.942686,1.38044 1.37042,2.09815 0.42522,0.77516 0.89704,1.52223 1.372176,2.26732 0.463048,0.74271 0.959118,1.4624 1.493774,2.15521 0.441818,0.56102 0.900886,1.1076 1.335001,1.67475 0.442952,0.5342 0.824245,1.11295 1.213027,1.68617 0.423757,0.54701 0.790779,1.13368 1.180732,1.70448 0.0567,0.0852 0.113123,0.17063 0.17009,0.25567 0.123352,0.18413 0.182166,0.27798 0.320456,0.4485 0.145777,0.17974 0.301389,0.35069 0.445269,0.53231 0.0927,0.10982 0.168074,0.23281 0.257337,0.34519 0.04233,0.0533 0.09064,0.10167 0.133083,0.15488 0.14774,0.18521 0.276254,0.3858 0.407836,0.58246 0.24765,0.3718 0.527624,0.71889 0.818248,1.05758 0.278307,0.29911 0.542552,0.61181 0.791573,0.93567 0.243305,0.31843 0.437477,0.67078 0.624564,1.02414 0.08676,0.0936 0.129035,0.21838 0.204817,0.31911 0.0708,0.0941 0.172564,0.16954 0.25278,0.25581 0.105368,0.0656 0.138097,0.1849 0.208148,0.2791 0.01746,0.0235 0.0429,0.0403 0.06037,0.0637 0.09112,0.12238 0.0019,0.0611 0.12001,0.12202 1.943451,0.51606 0.03484,0.007 5.445987,2.33719 0,0 -5.381202,-2.48709 -5.381202,-2.48709 v 0 c 5.488036,2.49634 6.199757,4.34028 5.424239,2.39532 -0.120491,-0.1709 0.02162,-0.005 -0.138827,-0.0975 -0.02832,-0.0163 -0.04413,-0.0487 -0.07012,-0.0684 -0.0275,-0.0209 -0.06149,-0.0322 -0.08922,-0.0528 -0.102597,-0.0763 -0.08647,-0.0806 -0.148143,-0.2 -0.05321,-0.0643 -0.09984,-0.13397 -0.153879,-0.19761 -0.112157,-0.13209 -0.03875,-0.031 -0.170336,-0.13594 -0.0857,-0.0684 -0.114647,-0.12082 -0.181285,-0.21038 -0.03895,-0.038 -0.08248,-0.0719 -0.116861,-0.11415 -0.04122,-0.0506 -0.07181,-0.10906 -0.108698,-0.16291 -0.03874,-0.0566 -0.08241,-0.10986 -0.11819,-0.16835 -0.114181,-0.18663 -0.196038,-0.39266 -0.31388,-0.57742 -0.03791,-0.0585 -0.181608,-0.2826 -0.222899,-0.33771 -0.175178,-0.23382 -0.3796,-0.44537 -0.559948,-0.67509 -0.04969,-0.0501 -0.101227,-0.0985 -0.149055,-0.15043 -0.385853,-0.4188 0.13059,0.12049 -0.261684,-0.3139 -0.0485,-0.0537 -0.105881,-0.0991 -0.153114,-0.15393 -0.103402,-0.12003 -0.179123,-0.2627 -0.298141,-0.37015 -0.135138,-0.19015 -0.258598,-0.38454 -0.380248,-0.58358 -0.03858,-0.0631 -0.07066,-0.13059 -0.115086,-0.18974 -0.08633,-0.11494 -0.213135,-0.19653 -0.279006,-0.32887 -0.145926,-0.19866 -0.290798,-0.40502 -0.459168,-0.58572 -0.06043,-0.0649 -0.130152,-0.12053 -0.191487,-0.18451 -0.201676,-0.21041 -0.201481,-0.22886 -0.376299,-0.47188 -0.06301,-0.0931 -0.123505,-0.18801 -0.189039,-0.27938 -0.303091,-0.42258 -0.132773,-0.14449 -0.429488,-0.59026 -0.740283,-1.11218 0.317336,0.45992 -0.356224,-0.60318 -0.05367,-0.0847 -0.119036,-0.16143 -0.178554,-0.24215 -0.146571,-0.18549 -0.252857,-0.31453 -0.389147,-0.51037 -0.313608,-0.45061 -0.08211,-0.15685 -0.411649,-0.60603 -0.07354,-0.10024 -0.153321,-0.19578 -0.227288,-0.2957 -0.07162,-0.0968 -0.139602,-0.19614 -0.209404,-0.29421 -0.441809,-0.58937 -0.895959,-1.16316 -1.389579,-1.71046 -0.549354,-0.68076 -1.095928,-1.36676 -1.541658,-2.12187 -0.48823,-0.72502 -0.941104,-1.47381 -1.369917,-2.2353 -0.217313,-0.37787 -0.444926,-0.74819 -0.668697,-1.12212 -0.145204,-0.24264 -0.259123,-0.4578 -0.409665,-0.69618 -0.06439,-0.10196 -0.134097,-0.20046 -0.201145,-0.30068 -0.180025,-0.2497 -0.363754,-0.4987 -0.526049,-0.76059 -0.04864,-0.0785 -0.09036,-0.16112 -0.139169,-0.2395 -0.03543,-0.0569 -0.244766,-0.36249 -0.283162,-0.41877 -0.09058,-0.0938 -0.252436,-0.25838 -0.335735,-0.35692 -0.248155,-0.29355 -0.441957,-0.62643 -0.67551,-0.9308 -0.15293,-0.22606 -0.305171,-0.45282 -0.459092,-0.67813 -0.03793,-0.0555 -0.07793,-0.1096 -0.117639,-0.16385 -0.03335,-0.0455 -0.07632,-0.085 -0.101534,-0.13554 -0.02336,-0.0468 -0.02779,-0.10094 -0.04168,-0.15141 z" />
      <path
         style="fill:#000000;stroke-width:0.264583"
         id="path124"
         d="m 33.419518,239.11993 c 0.04172,0.0591 0.08608,0.11636 0.125158,0.17721 0.177033,0.27563 0.322003,0.57102 0.484929,0.85485 0.05121,0.0892 0.329803,0.55562 0.381555,0.64242 0.33814,0.6313 0.736084,1.22578 1.130538,1.82233 0.237848,0.34011 0.446874,0.69915 0.678601,1.04325 0.241102,0.35803 0.486132,0.71017 0.71728,1.07499 0.413443,0.68144 0.88029,1.32752 1.34085,1.97721 0.426752,0.64164 0.923224,1.23113 1.39282,1.84062 0.412173,0.53804 0.802717,1.09195 1.207026,1.63579 0.380831,0.52076 0.81416,0.99833 1.190302,1.52251 0.423926,0.63151 0.927093,1.20267 1.391542,1.80338 0.398685,0.55391 0.80957,1.09877 1.230524,1.63591 0.308896,0.39159 0.638567,0.76262 0.989833,1.11629 0.28108,0.32554 0.614304,0.59575 0.931767,0.88313 0.05694,0.0478 0.113882,0.0956 0.170823,0.14337 0.05363,0.0496 0.105148,0.10162 0.160899,0.14884 0.0486,0.0412 0.103229,0.0748 0.151799,0.11602 0.04752,0.0403 0.0887,0.0877 0.136094,0.12814 0.355126,0.3031 -0.07236,-0.0924 0.254285,0.21564 0.135957,0.0736 0.218903,0.20763 0.335315,0.30389 0.03407,0.0282 0.07427,0.048 0.110421,0.0735 0.113535,0.0799 0.08717,0.0621 0.184004,0.16172 0.02941,0.0174 0.06078,0.0319 0.08823,0.0523 0.02553,0.0189 0.04853,0.0414 0.06975,0.065 0.02307,0.0257 0.03283,0.0652 0.06263,0.0827 1.710679,1.00603 3.490063,1.89923 5.151961,2.98394 -5.000569,-2.88301 -6.584172,-3.8988 -4.891945,-2.81522 0.273715,0.11193 -0.134027,-0.066 0.13801,0.0936 0.02233,0.0131 0.05224,0.007 0.07544,0.0183 0.07147,0.0354 0.05581,0.0661 0.10949,0.12381 0.01868,0.0201 0.04364,0.0332 0.06546,0.0498 0.0259,0.003 0.05437,-0.002 0.07769,0.01 0.03014,0.0151 0.04966,0.0457 0.07547,0.0674 0.03255,0.0274 0.06518,0.0547 0.09958,0.0797 0.04204,0.0306 0.0876,0.0561 0.129503,0.0869 0.09464,0.0695 0.184256,0.14555 0.276815,0.21777 1.720006,0.99571 3.458959,1.95937 5.160016,2.98712 1.600634,0.96707 -3.239294,-1.86976 -4.858692,-2.80506 -0.05092,-0.0294 0.102285,0.058 0.153246,0.0873 1.720459,0.9902 3.436618,1.98789 5.161008,2.97121 0.212278,0.084 0.112374,0.0328 0.300437,0.15188 0.199369,0.10374 0.391387,0.21915 0.593603,0.31747 0,0 -4.574315,-3.67351 -4.574315,-3.67351 v 0 c -0.193937,-0.11003 -0.390684,-0.21454 -0.587512,-0.31927 -0.0499,-0.0222 -0.101122,-0.0417 -0.149694,-0.0667 -0.0498,-0.0256 -0.193471,-0.11294 -0.14497,-0.0849 1.570892,0.9071 6.28506,3.62579 4.715145,2.71701 -1.717564,-0.99426 -3.420108,-2.01513 -5.155608,-2.97773 -1.634146,-0.90639 3.23433,1.8727 4.851495,2.80905 -0.118133,-0.0542 -0.178024,-0.0739 -0.281913,-0.15149 -0.03639,-0.0272 -0.06546,-0.0632 -0.101108,-0.0914 -0.04983,-0.0393 -0.118353,-0.0559 -0.159216,-0.10451 -0.02193,-0.0261 -0.03005,-0.0612 -0.04507,-0.0918 -0.09473,-0.0428 -0.04499,-0.0294 -0.149329,-0.0397 -0.09756,-0.0413 -0.0328,-0.0683 -0.111598,-0.13772 -0.02117,-0.0186 -0.05309,-0.019 -0.07964,-0.0285 -0.02233,-0.0246 -0.04468,-0.0492 -0.06702,-0.0738 -1.714947,-1.06168 -3.387101,-2.09806 -5.234249,-3.03092 -1.709852,-0.86353 3.316832,1.91727 4.968726,2.88707 0.02716,0.016 -0.06349,-0.009 -0.09145,-0.0237 -0.0639,-0.0331 -0.116335,-0.10833 -0.159734,-0.16035 -0.03545,-0.0191 -0.07411,-0.0331 -0.106363,-0.0572 -0.115366,-0.0862 -0.08402,-0.11093 -0.205171,-0.19626 -0.03921,-0.0276 -0.08755,-0.0398 -0.128344,-0.065 -0.126087,-0.0779 -0.131165,-0.1009 -0.232124,-0.21401 -0.425784,-0.30202 0.168531,0.13077 -0.269754,-0.22893 -0.04895,-0.0402 -0.108762,-0.0658 -0.15739,-0.10639 -0.05459,-0.0455 -0.0958,-0.10579 -0.15087,-0.15075 -0.540433,-0.44119 0.183856,0.2227 -0.341456,-0.2713 -0.389519,-0.31165 0.05391,0.052 -0.315531,-0.27897 -0.351258,-0.3147 0.03865,0.0555 -0.320392,-0.2523 -0.115483,-0.099 -0.211275,-0.21992 -0.337376,-0.30726 -0.162933,-0.17438 -0.173826,-0.1915 -0.34803,-0.35595 -0.05855,-0.0553 -0.121809,-0.10557 -0.178657,-0.1626 -0.183973,-0.18455 -0.340598,-0.39558 -0.515932,-0.58787 -0.482196,-0.50384 -0.901195,-1.0641 -1.313786,-1.62517 -0.153557,-0.21332 -0.295487,-0.41624 -0.459798,-0.62158 -0.30625,-0.38271 -0.646044,-0.7398 -0.914654,-1.15199 -0.129945,-0.1952 -0.252733,-0.39531 -0.388729,-0.58635 -0.23518,-0.33036 -0.509143,-0.63006 -0.762331,-0.94602 -0.200138,-0.25993 -0.409223,-0.5148 -0.603197,-0.77932 -0.07069,-0.0964 -0.133887,-0.19816 -0.204758,-0.29442 -0.14618,-0.19857 -0.308234,-0.38511 -0.453964,-0.58402 -0.01455,-0.0198 -0.43647,-0.59438 -0.45275,-0.61477 -0.0782,-0.0979 -0.165269,-0.18851 -0.245724,-0.28462 -0.253111,-0.30237 -0.488812,-0.6184 -0.72485,-0.93408 -0.07738,-0.1113 -0.154768,-0.22261 -0.232153,-0.33391 -0.07147,-0.10755 -0.141166,-0.2163 -0.21441,-0.32265 -0.144693,-0.21009 -0.292976,-0.41772 -0.443283,-0.62383 -0.07955,-0.10908 -0.165532,-0.21344 -0.243271,-0.32381 -0.08176,-0.11609 -0.156676,-0.23685 -0.235014,-0.35527 -0.07693,-0.12182 -0.155953,-0.24234 -0.230804,-0.36545 -0.07524,-0.12374 -0.141549,-0.25287 -0.219395,-0.37499 -0.289335,-0.45388 -0.648637,-0.86439 -0.885021,-1.35171 -0.371173,-0.61094 -0.80764,-1.17902 -1.155607,-1.8045 -0.05957,-0.10921 -0.117097,-0.21955 -0.178708,-0.32763 -0.228073,-0.40006 -0.49472,-0.787 -0.604718,-1.24156 z" />
    </g>
  </g>
</svg>
